<svg viewBox="0 0 207.98138341812322 318.40000000000003" width="207.98138341812322px" height="318.40000000000003px" xmlns="http://www.w3.org/2000/svg">
  <!-- Generated by CharChem v.2.0.6 -->
  <path d="M0 6.5L0 60.7" fill="none" stroke="rgb(0, 0, 51)" stroke-width="1" stroke-linecap="round" transform="translate(97.98,6.5)"></path>
  <path d="M2.49 56.22L0 60.7L-2.49 56.22" fill="none" stroke="rgb(0, 0, 51)" stroke-width="1" transform="translate(97.98,6.5)"></path>
  <path d="M0 73.7L0 150.3" fill="none" stroke="rgb(0, 0, 51)" stroke-width="1" stroke-linecap="round" transform="translate(97.98,6.5)"></path>
  <path d="M2.49 145.82L0 150.3L-2.49 145.82" fill="none" stroke="rgb(0, 0, 51)" stroke-width="1" transform="translate(97.98,6.5)"></path>
  <path d="M-13.94 163.3L-46.96 178.7" fill="none" stroke="rgb(0, 0, 51)" stroke-width="1" stroke-linecap="round" transform="translate(97.98,6.5)"></path>
  <path d="M-41.85 179.06L-46.96 178.7L-43.96 174.55" fill="none" stroke="rgb(0, 0, 51)" stroke-width="1" transform="translate(97.98,6.5)"></path>
  <path d="M-5.45 163.3L-37.74 201.78" fill="none" stroke="rgb(0, 0, 51)" stroke-width="1" stroke-linecap="round" transform="translate(97.98,6.5)"></path>
  <path d="M-32.95 199.95L-37.74 201.78L-36.77 196.75" fill="none" stroke="rgb(0, 0, 51)" stroke-width="1" transform="translate(97.98,6.5)"></path>
  <path d="M0 163.3L0 228.7" fill="none" stroke="rgb(0, 0, 51)" stroke-width="1" stroke-linecap="round" transform="translate(97.98,6.5)"></path>
  <path d="M2.49 224.22L0 228.7L-2.49 224.22" fill="none" stroke="rgb(0, 0, 51)" stroke-width="1" transform="translate(97.98,6.5)"></path>
  <path d="M-11.26 241.7L-46.94 262.3" fill="none" stroke="rgb(0, 0, 51)" stroke-width="1" stroke-linecap="round" transform="translate(97.98,6.5)"></path>
  <path d="M-41.81 262.22L-46.94 262.3L-44.3 257.9" fill="none" stroke="rgb(0, 0, 51)" stroke-width="1" transform="translate(97.98,6.5)"></path>
  <path d="M-3.75 241.7L-29.85 286.9" fill="none" stroke="rgb(0, 0, 51)" stroke-width="1" stroke-linecap="round" transform="translate(97.98,6.5)"></path>
  <path d="M-25.45 284.26L-29.85 286.9L-29.76 281.77" fill="none" stroke="rgb(0, 0, 51)" stroke-width="1" transform="translate(97.98,6.5)"></path>
  <path d="M0 241.7L0 295.9" fill="none" stroke="rgb(0, 0, 51)" stroke-width="1" stroke-linecap="round" transform="translate(97.98,6.5)"></path>
  <path d="M2.49 291.42L0 295.9L-2.49 291.42" fill="none" stroke="rgb(0, 0, 51)" stroke-width="1" transform="translate(97.98,6.5)"></path>
  <path d="M3.75 241.7L29.85 286.9" fill="none" stroke="rgb(0, 0, 51)" stroke-width="1" stroke-linecap="round" transform="translate(97.98,6.5)"></path>
  <path d="M29.76 281.77L29.85 286.9L25.45 284.26" fill="none" stroke="rgb(0, 0, 51)" stroke-width="1" transform="translate(97.98,6.5)"></path>
  <path d="M11.26 241.7L46.94 262.3" fill="none" stroke="rgb(0, 0, 51)" stroke-width="1" stroke-linecap="round" transform="translate(97.98,6.5)"></path>
  <path d="M44.3 257.9L46.94 262.3L41.81 262.22" fill="none" stroke="rgb(0, 0, 51)" stroke-width="1" transform="translate(97.98,6.5)"></path>
  <path d="M13.94 163.3L46.96 178.7" fill="none" stroke="rgb(0, 0, 51)" stroke-width="1" stroke-linecap="round" transform="translate(97.98,6.5)"></path>
  <path d="M43.96 174.55L46.96 178.7L41.85 179.06" fill="none" stroke="rgb(0, 0, 51)" stroke-width="1" transform="translate(97.98,6.5)"></path>
  <path d="M7.75 163.3L52.31 200.69" fill="none" stroke="rgb(0, 0, 51)" stroke-width="1" stroke-linecap="round" transform="translate(97.98,6.5)"></path>
  <path d="M50.48 195.91L52.31 200.69L47.28 199.72" fill="none" stroke="rgb(0, 0, 51)" stroke-width="1" transform="translate(97.98,6.5)"></path>
  <path d="M-7.75 73.7L-43.73 103.9" fill="none" stroke="rgb(0, 0, 51)" stroke-width="1" stroke-linecap="round" transform="translate(97.98,6.5)"></path>
  <path d="M-38.7 102.92L-43.73 103.9L-41.9 99.11" fill="none" stroke="rgb(0, 0, 51)" stroke-width="1" transform="translate(97.98,6.5)"></path>
  <path d="M5.45 73.7L37.74 112.18" fill="none" stroke="rgb(0, 0, 51)" stroke-width="1" stroke-linecap="round" transform="translate(97.98,6.5)"></path>
  <path d="M36.77 107.15L37.74 112.18L32.95 110.35" fill="none" stroke="rgb(0, 0, 51)" stroke-width="1" transform="translate(97.98,6.5)"></path>
  <path d="M24.26 73.7L65.18 84.67" fill="none" stroke="rgb(0, 0, 51)" stroke-width="1" stroke-linecap="round" transform="translate(97.98,6.5)"></path>
  <path d="M61.5 81.1L65.18 84.67L60.21 85.91" fill="none" stroke="rgb(0, 0, 51)" stroke-width="1" transform="translate(97.98,6.5)"></path>
  <text x="74.1" y="12" fill="rgb(0, 0, 51)" font-family="Cambria, Times, serif" font-size="16px">Source</text>
  <text x="59.6" y="79.2" fill="rgb(0, 0, 51)" font-family="Cambria, Times, serif" font-size="16px">Expression</text>
  <text x="61.55" y="168.8" fill="rgb(0, 0, 51)" font-family="Cambria, Times, serif" font-size="16px">Inspectors</text>
  <text x="6.57" y="197.2" fill="rgb(0, 0, 51)" font-family="Cambria, Times, serif" font-size="16px">calcMass</text>
  <text x="17.34" y="220.28" fill="rgb(0, 0, 51)" font-family="Cambria, Times, serif" font-size="16px">calcCharge</text>
  <text x="36.17" y="247.2" fill="rgb(0, 0, 51)" font-family="Cambria, Times, serif" font-size="16px">makeTextFormula</text>
  <text x="24.28" y="280.8" fill="rgb(0, 0, 51)" font-family="Cambria, Times, serif" font-size="16px">html</text>
  <text x="51.54" y="305.4" fill="rgb(0, 0, 51)" font-family="Cambria, Times, serif" font-size="16px">text</text>
  <text x="84.23" y="314.4" fill="rgb(0, 0, 51)" font-family="Cambria, Times, serif" font-size="16px">RTF</text>
  <text x="121.58" y="305.4" fill="rgb(0, 0, 51)" font-family="Cambria, Times, serif" font-size="16px">BB</text>
  <text x="120.18" y="280.8" fill="rgb(0, 0, 51)" font-family="Cambria, Times, serif" font-size="16px">CharChem</text>
  <text x="118.09" y="197.2" fill="rgb(0, 0, 51)" font-family="Cambria, Times, serif" font-size="16px">makeBrutto</text>
  <text x="109.09" y="219.19" fill="rgb(0, 0, 51)" font-family="Cambria, Times, serif" font-size="16px">isTextFormula</text>
  <text x="1" y="122.4" fill="rgb(0, 0, 51)" font-family="Cambria, Times, serif" font-size="16px">structBuilder</text>
  <text x="110.67" y="130.68" fill="rgb(0, 0, 51)" font-family="Cambria, Times, serif" font-size="16px">equation</text>
  <text x="164.16" y="102.39" fill="rgb(0, 0, 51)" font-family="Cambria, Times, serif" font-size="16px">graph</text>
</svg>